<?xml version="1.0" encoding="utf-8"?>
<svg aria-hidden="true" focusable="false" data-prefix="far" data-icon="comment" class="svg-inline--fa fa-comment fa-w-16" role="img" viewBox="0 0 512 512" xmlns="http://www.w3.org/2000/svg">
  <path fill="currentColor" d="M 256.286 487.071 C 149.902 487.071 63.682 392.869 63.682 276.609 C 63.682 228.445 78.654 184.33 103.481 148.814 C 92.271 108.948 68.948 75.153 68.572 74.747 C 63.606 67.665 62.252 57.343 65.11 48.44 C 67.97 39.535 74.515 33.768 81.738 33.768 C 128.009 33.768 164.498 59.773 186.391 80.616 C 208.135 71.408 231.609 66.146 256.286 66.146 C 362.669 66.146 448.89 160.349 448.89 276.609 C 448.89 392.869 362.669 487.071 256.286 487.071 Z M 256.286 114.714 C 236.197 114.714 216.335 118.864 197.3 126.958 L 180.221 134.244 L 165.551 120.28 C 154.792 110.061 140.046 98.627 122.29 90.936 C 127.782 103.18 133.125 116.941 137.261 131.613 L 145.237 160.045 L 129.738 182.104 C 116.121 201.632 99.794 233.909 99.794 276.609 C 99.794 365.853 169.99 438.503 256.286 438.503 C 342.582 438.503 412.777 365.853 412.777 276.609 C 412.777 187.364 342.582 114.714 256.286 114.714 Z" style="" transform="matrix(-1, 0, 0, -1, 512.521248, 520.839012)"/>
</svg>